{"title":"House of Bones 2010 DVDRip Xvid LKRG","uid":7015806,"size":753010286,"categoryP":"video","categoryS":"movies","magnet":"?xt=urn:btih:95f22bd4ee677764cbfa305925e6c518d31ff2d0&amp;dn=House+of+Bones+2010+DVDRip+Xvid+LKRG&amp;tr=udp%3A%2F%2Ftracker.openbittorrent.com%3A80&amp;tr=udp%3A%2F%2Fopen.demonii.com%3A1337&amp;tr=udp%3A%2F%2Ftracker.coppersurfer.tk%3A6969&amp;tr=udp%3A%2F%2Fexodus.desync.com%3A6969","seeders":1,"leechers":0,"uploader":".BONE.","files":2,"time":1328653590,"description":"Corin Nemec (Mansquito, SS Doomtrooper) co-stars alongside Carpenter as TV ghost hunters that\nenter a reportedly haunted house that may prove to be the death of them.\n\n\nEncoded By .......: Stang91\nRuntime ..........: 1h 30mn\nFile Size ........: 718 MiB\nResolution .......: 720x400 &lt;a href=&quot;\nhttp://www.imdb.com/title/tt1334536/&quot; rel=&quot;nofollow&quot; target=&quot;_NEW&quot;&gt;\nhttp://www.imdb.com/title/tt1334536/&lt;/a&gt;\nGenre ............: Horror\nLanguage .........: English\nSubtitles ........: None\nGeneral\nComplete name : House of Bones 2010 DVDRip Xvid AC3 Stang91 LKRG\\House_of_Bones_Stang91-LKRG.avi\nFormat : AVI\nFormat/Info : Audio Video Interleave\nFile size : 718 MiB\nDuration : 1h 30mn\nOverall bit rate : 1 112 Kbps\nWriting application : VirtualDubMod 1.5.10.2 (build 2540/release)\nWriting library : VirtualDubMod build 2540/release\n\nVideo\nID : 0\nFormat : MPEG-4 Visual\nFormat profile : Advanced Simple@L5\nFormat settings, BVOP : Yes\nFormat settings, QPel : No\nFormat settings, GMC : No warppoints\nFormat settings, Matrix : Default (H.263)\nMuxing mode : Packed bitstream\nCodec ID : XVID\nCodec ID/Hint : XviD\nDuration : 1h 30mn\nBit rate : 879 Kbps\nWidth : 720 pixels\nHeight : 400 pixels\nDisplay aspect ratio : 16:9\nFrame rate : 23.976 fps\nColor space : YUV\nChroma subsampling : 4:2:0\nBit depth : 8 bits\nScan type : Progressive\nCompression mode : Lossy\nBits/(Pixel*Frame) : 0.127\nStream size : 567 MiB (79%)\nWriting library : XviD 64\n\nAudio\nID : 1\nFormat : AC-3\nFormat/Info : Audio Coding 3\nMode extension : CM (complete main)\nCodec ID : 2000\nDuration : 1h 30mn\nBit rate mode : Constant\nBit rate : 224 Kbps\nChannel(s) : 2 channels\nChannel positions : Front: L R\nSampling rate : 48.0 KHz\nBit depth : 16 bits\nCompression mode : Lossy\nStream size : 145 MiB (20%)\nAlignment : Split accross interleaves\nInterleave, duration : 42 ms (1.00 video frame)\nInterleave, preload duration : 500 ms\n &lt;a href=&quot;\nhttp://www.shotpix.com/images/60829885667905879995.png&quot; rel=&quot;nofollow&quot; target=&quot;_NEW&quot;&gt;\nhttp://www.shotpix.com/images/60829885667905879995.png&lt;/a&gt; &lt;a href=&quot;\nhttp://www.shotpix.com/images/35363636668922486382.png&quot; rel=&quot;nofollow&quot; target=&quot;_NEW&quot;&gt;\nhttp://www.shotpix.com/images/35363636668922486382.png&lt;/a&gt; &lt;a href=&quot;\nhttp://www.shotpix.com/images/33959097609536017348.png&quot; rel=&quot;nofollow&quot; target=&quot;_NEW&quot;&gt;\nhttp://www.shotpix.com/images/33959097609536017348.png&lt;/a&gt; &lt;a href=&quot;\nhttp://www.shotpix.com/images/41591852837117633207.png&quot; rel=&quot;nofollow&quot; target=&quot;_NEW&quot;&gt;\nhttp://www.shotpix.com/images/41591852837117633207.png&lt;/a&gt;","torrent":{"xt":"urn:btih:95f22bd4ee677764cbfa305925e6c518d31ff2d0","amp;dn":"House+of+Bones+2010+DVDRip+Xvid+LKRG","amp;tr":["udp%3A%2F%2Ftracker.openbittorrent.com%3A80","udp%3A%2F%2Fopen.demonii.com%3A1337","udp%3A%2F%2Ftracker.coppersurfer.tk%3A6969","udp%3A%2F%2Fexodus.desync.com%3A6969"],"infoHash":"95f22bd4ee677764cbfa305925e6c518d31ff2d0","infoHashBuffer":{"type":"Buffer","data":[149,242,43,212,238,103,119,100,203,250,48,89,37,230,197,24,211,31,242,208]},"announce":[],"urlList":[]}}